<?xml version="1.0" standalone="yes"?>
<svg xmlns="http://www.w3.org/2000/svg" width="209" height="177">
<path style="fill:#010101; stroke:none;" d="M0 0L0 177L209 177L209 0L0 0z"/>
<path style="fill:#3797d1; stroke:none;" d="M140 85C144.905 67.8893 117.938 67.3749 123 85L94 85L94 86C113.014 90.3987 129.451 93.9492 149 89.5748C158.69 87.4065 168.552 79.9718 178 79C173.993 62.2163 170.889 48.1815 160.101 34C139.669 7.13943 100.842 -2.32503 70 10.8727C62.0535 14.2731 43.041 22.9149 42.4915 33C42.195 38.4414 47.4815 45.6678 50.3557 50C52.4265 53.1213 54.7877 57.3411 58.0903 59.3032C65.4953 63.7028 81.4948 50.711 90 50.0903C104.485 49.0331 113.134 56.3239 126 60.1998C134.517 62.7656 143.704 61.2448 151.984 65.5579C159.069 69.2491 157.23 80.0183 150.787 83.821C147.732 85.624 143.402 84.9996 140 85z"/>
<path style="fill:#2f7dc0; stroke:none;" d="M43 29L44 30L43 29M42 30L43 31L42 30M41 32C35.7743 39.6436 30.6279 46.2503 27.2045 55C18.9649 76.0588 38.2843 98.9592 58 104.243C67.8599 106.886 73.5437 100.783 83 100.09C93.7097 99.3052 104.286 102.983 115 103C121.997 103.011 128.488 102.465 135 99.6921C137.035 98.8257 140.304 96.7883 142.353 98.7083C145.305 101.476 140.87 106.053 138.956 107.895C133.072 113.558 123.968 116.823 116 118C119.469 131.251 134.302 127.069 144 123.655C162.447 117.161 183.428 99.7471 177 78C159.648 86.1016 142.694 93.2604 123 91.9105C108.5 90.9166 95.5809 85 81 85L78 78C77.593 95.7147 56.4917 77.4133 73 74L73 73C64.91 71.5158 61.9261 77.9148 64 85C60.3517 84.9976 55.3904 85.6793 52.7423 82.5664C47.2975 76.1659 50.6962 62.2858 59 61L41 32z"/>
<path style="fill:#3797d1; stroke:none;" d="M40 33L41 34L40 33M39 34L40 35L39 34M38 35L39 36L38 35M35 39L36 40L35 39z"/>
<path style="fill:#eaf2e0; stroke:none;" d="M63 85C61.6218 67.7766 83.3193 68.3492 81 85L122 85C122.154 68.0242 140.846 68.0242 141 85C148.971 84.9947 165.945 73.9636 153.89 66.2245C145.634 60.9239 135.808 62.9937 127 60.3511C114.471 56.592 105.924 49.9008 92 50.0046C81.5279 50.0827 73.4256 55.9445 64 59.5324C60.5439 60.848 56.0943 60.7358 53.3179 63.4336C44.2789 72.2167 52.696 84.9704 63 85z"/>
<path style="fill:#7caa3c; stroke:none;" d="M99 50L100 51L99 50M82 51L83 52L82 51M106 51L107 52L106 51M79 52L80 53L79 52M110 52L111 53L110 52z"/>
<path style="fill:#3797d1; stroke:none;" d="M27 54L28 55L27 54z"/>
<path style="fill:#7caa3c; stroke:none;" d="M115 54L116 55L115 54M87 55L88 56L87 55z"/>
<path style="fill:#3797d1; stroke:none;" d="M74 64L119 64C109.005 51.9453 83.3715 51.0162 74 64z"/>
<path style="fill:#7caa3c; stroke:none;" d="M117 55L118 56L117 55M83 56L84 57L83 56M106 56L107 57L106 56M109 57L110 58L109 57M64 59L65 60L64 59M61 60L62 61L61 60M115 60L116 61L115 60M126 60L127 61L126 60z"/>
<path style="fill:#3797d1; stroke:none;" d="M54 61L55 62L54 61z"/>
<path style="fill:#7caa3c; stroke:none;" d="M55 61L56 62L55 61M137 61L138 62L137 61M53 62L54 63L53 62M52 63L53 64L52 63z"/>
<path style="fill:#3797d1; stroke:none;" d="M51 64L52 65L51 64z"/>
<path style="fill:#7caa3c; stroke:none;" d="M152 65L153 66L152 65z"/>
<path style="fill:#3797d1; stroke:none;" d="M69 71L69 72L81 79C79.2787 72.923 74.9665 71.1442 69 71z"/>
<path style="fill:#7caa3c; stroke:none;" d="M134 71L135 72L134 71z"/>
<path style="fill:#3797d1; stroke:none;" d="M67 72L68 73L67 72z"/>
<path style="fill:#7caa3c; stroke:none;" d="M136 72L137 73L136 72M65 73L66 74L65 73M78 73L79 74L78 73z"/>
<path style="fill:#3797d1; stroke:none;" d="M69 74L70 75L69 74z"/>
<path style="fill:#eaf2e0; stroke:none;" d="M70.108 74.7863C62.7504 77.4483 67.6509 88.4191 74.7716 85.2531C80.9447 82.5083 76.4401 72.4952 70.108 74.7863z"/>
<path style="fill:#7caa3c; stroke:none;" d="M129 74L130 75L129 74z"/>
<path style="fill:#eaf2e0; stroke:none;" d="M130.043 74.8511C122.95 76.9112 125.738 87.3036 132.943 85.6628C140.015 84.0524 136.939 72.8482 130.043 74.8511z"/>
<path style="fill:#7caa3c; stroke:none;" d="M133 74L134 75L133 74z"/>
<path style="fill:#3797d1; stroke:none;" d="M67 75L68 76L67 75z"/>
<path style="fill:#7caa3c; stroke:none;" d="M127 75L128 76L127 75M139 75L140 76L139 75z"/>
<path style="fill:#3797d1; stroke:none;" d="M63 76L64 77L63 76z"/>
<path style="fill:#7caa3c; stroke:none;" d="M126 76L127 77L126 76z"/>
<path style="fill:#2f7dc0; stroke:none;" d="M177.333 76.6667L177.667 77.3333L177.333 76.6667z"/>
<path style="fill:#7caa3c; stroke:none;" d="M66 77L67 78L66 77M77 77L78 78L77 77M122 77L123 78L122 77M140 77L141 78L140 77M155 77L156 78L155 77M125 78L126 79L125 78M62 79L62 82L63 82L62 79z"/>
<path style="fill:#3797d1; stroke:none;" d="M78.3333 79.6667L78.6667 80.3333L78.3333 79.6667z"/>
<path style="fill:#7caa3c; stroke:none;" d="M81 79L82 80L81 79z"/>
<path style="fill:#3797d1; stroke:none;" d="M81 80L82 81L81 80z"/>
<path style="fill:#7caa3c; stroke:none;" d="M137.333 80.6667L137.667 81.3333L137.333 80.6667M81.3333 81.6667L81.6667 82.3333L81.3333 81.6667M125 81L126 82L125 81z"/>
<path style="fill:#3797d1; stroke:none;" d="M52 83L53 84L52 83M66 83L67 84L66 83M77 83L78 84L77 83z"/>
<path style="fill:#7caa3c; stroke:none;" d="M152 83L153 84L152 83z"/>
<path style="fill:#3797d1; stroke:none;" d="M54 84L55 85L54 84M63 84L64 85L63 84z"/>
<path style="fill:#7caa3c; stroke:none;" d="M67 84L68 85L67 84M122 84L123 85L122 84M140 84L141 85L140 84M150 84L151 85L150 84z"/>
<path style="fill:#3797d1; stroke:none;" d="M68 85L69 86L68 85z"/>
<path style="fill:#7caa3c; stroke:none;" d="M75 85L76 86L75 85z"/>
<path style="fill:#3797d1; stroke:none;" d="M70 86L71 87L70 86z"/>
<path style="fill:#7caa3c; stroke:none;" d="M71.6667 86.3333L72.3333 86.6667L71.6667 86.3333z"/>
<path style="fill:#3797d1; stroke:none;" d="M73.6667 86.3333L74.3333 86.6667L73.6667 86.3333z"/>
<path style="fill:#7caa3c; stroke:none;" d="M130 86L130 87L133 87L130 86z"/>
<path style="fill:#3797d1; stroke:none;" d="M177 92L178 93L177 92M137 98L138 99L137 98M175 98L176 99L175 98M135 99L136 100L135 99M92 100L93 101L92 100M174 100L175 101L174 100M142 104L143 105L142 104z"/>
<path style="fill:#7caa3c; stroke:none;" d="M28 113C42.7796 164.206 125.803 180.283 157 136C147.076 139.756 138.428 145.63 128 148.572C103.371 155.521 76.5007 151.124 55 137.302C44.5271 130.569 37.6687 120.394 28 113z"/>
</svg>
